<?xml version="1.0" encoding="iso-8859-1"?>
<!-- Uploaded to: SVG Repo, www.svgrepo.com, Generator: SVG Repo Mixer Tools -->
<!DOCTYPE svg PUBLIC "-//W3C//DTD SVG 1.1//EN" "http://www.w3.org/Graphics/SVG/1.1/DTD/svg11.dtd">
<svg fill="#000000" version="1.1" id="Capa_1" xmlns="http://www.w3.org/2000/svg" xmlns:xlink="http://www.w3.org/1999/xlink" 
	 width="800px" height="800px" viewBox="0 0 226.835 226.835"
	 xml:space="preserve">
<g>
	<g>
		<path d="M40.571,82.064c5.776,0,10.464-6.704,10.464-12.486c0-5.772-4.688-10.461-10.464-10.461
			c-5.784,0-10.473,4.689-10.473,10.461C30.098,75.36,34.787,82.064,40.571,82.064z"/>
		<path d="M113.418,82.064c5.772,0,10.468-6.704,10.468-12.486c0-5.772-4.695-10.461-10.468-10.461
			c-5.778,0-10.47,4.689-10.47,10.461C102.948,75.36,107.64,82.064,113.418,82.064z"/>
		<path d="M186.269,82.064c5.779,0,10.468-6.704,10.468-12.486c0-5.772-4.688-10.461-10.468-10.461
			c-5.784,0-10.473,4.689-10.473,10.461C175.796,75.36,180.485,82.064,186.269,82.064z"/>
		<path d="M224.759,66.912c-1.985-1.142-4.519-0.462-5.651,1.522l-10.997,19.111l-4.024-1.13c-1.169-0.411-8.994-3.069-16.228-3.428
			l-1.042,2.076h-0.023l2.782,21.705l-3.312,5.787l-3.312-5.787l2.789-21.705h-0.037l-1.035-2.076
			c-7.228,0.365-15.046,3.017-16.221,3.428l-4.02,1.124l-11.009-19.111c-0.043-0.082-0.116-0.119-0.164-0.195
			c-0.152-0.231-0.348-0.417-0.549-0.618c-0.194-0.198-0.383-0.393-0.614-0.542c-0.073-0.049-0.116-0.131-0.195-0.168
			c-0.152-0.088-0.322-0.1-0.487-0.161c-0.262-0.112-0.518-0.213-0.798-0.262c-0.262-0.052-0.518-0.058-0.779-0.058
			s-0.518,0.006-0.779,0.058c-0.28,0.055-0.536,0.155-0.798,0.268c-0.152,0.062-0.328,0.073-0.48,0.162
			c-0.073,0.042-0.116,0.119-0.183,0.167c-0.237,0.149-0.427,0.35-0.628,0.551c-0.194,0.198-0.39,0.384-0.541,0.615
			c-0.043,0.076-0.122,0.113-0.165,0.195l-11.003,19.111l-4.025-1.129c-1.199-0.423-9.006-3.069-16.228-3.428l-1.041,2.076h-0.024
			l2.786,21.705l-3.304,5.781l-3.309-5.787l2.786-21.705h-0.03l-1.035-2.076c-7.234,0.365-15.053,3.017-16.225,3.428l-4.022,1.124
			l-11-19.111c-0.042-0.082-0.125-0.119-0.167-0.195c-0.149-0.231-0.35-0.417-0.542-0.618c-0.195-0.198-0.387-0.393-0.618-0.542
			c-0.076-0.049-0.119-0.131-0.192-0.168c-0.158-0.088-0.332-0.1-0.493-0.161c-0.262-0.112-0.518-0.213-0.797-0.262
			c-0.262-0.058-0.518-0.058-0.78-0.058c-0.262,0-0.518,0.006-0.779,0.058c-0.283,0.055-0.539,0.155-0.801,0.268
			c-0.161,0.062-0.329,0.073-0.484,0.162c-0.076,0.042-0.119,0.119-0.189,0.167c-0.231,0.149-0.423,0.35-0.624,0.551
			c-0.198,0.198-0.387,0.384-0.542,0.615c-0.049,0.076-0.125,0.113-0.167,0.195L62.401,87.551l-4.022-1.129
			c-1.197-0.423-9.003-3.069-16.225-3.428l-1.042,2.076h-0.024l2.789,21.705l-3.312,5.781l-3.31-5.781l2.786-21.705h-0.031
			l-1.041-2.076c-7.234,0.368-15.052,3.017-16.225,3.428l-4.022,1.124L7.729,68.434c-1.139-1.984-3.678-2.664-5.653-1.522
			c-1.982,1.142-2.664,3.672-1.522,5.651l12.602,21.896c0.755,1.303,2.134,2.076,3.586,2.076c0.375,0,0.749-0.049,1.114-0.149
			l7.264-2.034c0.052-0.012,0.088-0.055,0.137-0.067c0.052-0.021,0.106-0.006,0.158-0.027c0.031-0.012,1.453-0.518,3.553-1.114
			v28.254l-3.291,40.968c-0.22,2.729,1.82,5.121,4.551,5.34c0.131,0.013,0.268,0.013,0.399,0.013c2.561,0,4.737-1.967,4.944-4.573
			l2.98-37.021c0.615,0.273,1.291,0.426,2.007,0.426c0.712,0,1.391-0.152,2.003-0.426l2.978,37.021
			c0.213,2.606,2.384,4.573,4.948,4.573c0.131,0,0.268,0,0.405-0.013c2.731-0.219,4.768-2.611,4.552-5.34l-3.3-40.968V93.144
			c2.101,0.597,3.522,1.103,3.562,1.114c0.055,0.021,0.113,0.016,0.162,0.034c0.042,0.012,0.076,0.049,0.131,0.061l7.264,2.034
			c0.375,0.106,0.749,0.155,1.114,0.155c1.449,0,2.838-0.767,3.587-2.077l9.015-15.667l9.018,15.661
			c0.755,1.303,2.137,2.076,3.593,2.076c0.365,0,0.746-0.049,1.114-0.149l7.264-2.034c0.055-0.012,0.088-0.055,0.137-0.067
			c0.049-0.021,0.101-0.006,0.149-0.027c0.034-0.012,1.453-0.518,3.562-1.114v28.254l-3.3,40.968
			c-0.216,2.729,1.821,5.121,4.551,5.34c0.131,0.013,0.268,0.013,0.399,0.013c2.564,0,4.741-1.967,4.945-4.573l2.974-37.021
			c0.618,0.273,1.291,0.426,2.009,0.426c0.716,0,1.392-0.152,2.007-0.426l2.98,37.021c0.207,2.606,2.387,4.573,4.944,4.573
			c0.134,0,0.268,0,0.402-0.013c2.728-0.219,4.773-2.611,4.548-5.34l-3.288-40.968V93.144c2.101,0.597,3.52,1.103,3.557,1.114
			c0.061,0.021,0.115,0.016,0.164,0.034c0.049,0.012,0.079,0.049,0.134,0.061l7.265,2.034c0.371,0.106,0.743,0.155,1.114,0.155
			c1.449,0,2.838-0.767,3.587-2.077l9.018-15.667l9.019,15.661c0.755,1.303,2.131,2.076,3.592,2.076
			c0.372,0,0.743-0.049,1.114-0.149l7.265-2.034c0.049-0.012,0.092-0.055,0.141-0.067c0.048-0.021,0.104-0.006,0.146-0.027
			c0.037-0.012,1.455-0.518,3.562-1.114v28.254l-3.294,40.968c-0.22,2.729,1.82,5.121,4.555,5.34
			c0.134,0.013,0.268,0.013,0.401,0.013c2.563,0,4.743-1.967,4.944-4.573l2.983-37.021c0.609,0.273,1.291,0.426,2.004,0.426
			c0.712,0,1.388-0.152,2.003-0.426l2.984,37.021c0.207,2.606,2.381,4.573,4.944,4.573c0.128,0,0.268,0,0.401-0.013
			c2.734-0.219,4.774-2.611,4.555-5.34l-3.294-40.968V93.144c2.101,0.597,3.525,1.103,3.562,1.114
			c0.056,0.021,0.11,0.016,0.165,0.034c0.049,0.012,0.079,0.049,0.128,0.061l7.264,2.034c0.366,0.106,0.743,0.155,1.115,0.155
			c1.455,0,2.837-0.767,3.586-2.077l12.61-21.902C227.426,70.577,226.738,68.054,224.759,66.912z"/>
	</g>
</g>
</svg>