<?xml version="1.0" encoding="iso-8859-1"?>
<!-- Uploaded to: SVG Repo, www.svgrepo.com, Generator: SVG Repo Mixer Tools -->
<!DOCTYPE svg PUBLIC "-//W3C//DTD SVG 1.1//EN" "http://www.w3.org/Graphics/SVG/1.1/DTD/svg11.dtd">
<svg fill="#000000" version="1.1" id="Capa_1" xmlns="http://www.w3.org/2000/svg" xmlns:xlink="http://www.w3.org/1999/xlink" 
	 width="800px" height="800px" viewBox="0 0 379.883 379.883"
	 xml:space="preserve">
<g>
	<path d="M367.935,25.006c-0.643-6.923-6.119-12.409-13.036-13.048L225.171,0.059c-4.264-0.388-8.497,1.149-11.518,4.173
		L4.224,213.662c-5.632,5.632-5.632,14.754,0,20.386l141.605,141.611c5.632,5.633,14.754,5.633,20.386,0l209.441-209.432
		c3.021-3.021,4.552-7.245,4.168-11.505L367.935,25.006z M325.246,81.838c-7.506,7.503-19.671,7.503-27.189,0
		c-7.506-7.515-7.506-19.687,0-27.196c7.519-7.503,19.684-7.515,27.189,0C332.752,62.151,332.752,74.332,325.246,81.838z"/>
</g>
</svg>