<?xml version="1.0" encoding="utf-8"?><!-- Uploaded to: SVG Repo, www.svgrepo.com, Generator: SVG Repo Mixer Tools -->
<svg fill="#000000" width="800px" height="800px" viewBox="0 0 1024 1024" xmlns="http://www.w3.org/2000/svg"><path d="M307.2 149.333H93.867c-38.4 0-68.267 29.867-68.267 68.267V832c0 12.8 8.533 21.333 21.333 21.333S68.266 844.8 68.266 832V217.6c0-17.067 12.8-25.6 25.6-25.6h213.333c17.067 0 25.6 12.8 25.6 25.6V832c0 12.8 8.533 21.333 21.333 21.333S375.465 844.8 375.465 832V217.6c0-38.4-29.867-68.267-68.267-68.267z"/><path d="M281.6 302.933H123.733c-12.8 0-21.333 8.533-21.333 21.333s8.533 21.333 21.333 21.333H281.6c12.8 0 21.333-8.533 21.333-21.333s-8.533-21.333-21.333-21.333zm0 81.067H123.733c-12.8 0-21.333 8.533-21.333 21.333s8.533 21.333 21.333 21.333H281.6c12.8 0 21.333-8.533 21.333-21.333S294.4 384 281.6 384zm0 72.533H123.733c-12.8 0-21.333 8.533-21.333 21.333s8.533 21.333 21.333 21.333H281.6c12.8 0 21.333-8.533 21.333-21.333s-8.533-21.333-21.333-21.333zm0 81.067H123.733c-12.8 0-21.333 8.533-21.333 21.333s8.533 21.333 21.333 21.333H281.6c12.8 0 21.333-8.533 21.333-21.333S294.4 537.6 281.6 537.6zm0 81.067H123.733c-12.8 0-21.333 8.533-21.333 21.333s8.533 21.333 21.333 21.333H281.6c12.8 0 21.333-8.533 21.333-21.333s-8.533-21.333-21.333-21.333zm648.533-469.334H716.8c-38.4 0-68.267 29.867-68.267 68.267V832c0 12.8 8.533 21.333 21.333 21.333S691.199 844.8 691.199 832V217.6c0-17.067 12.8-25.6 25.6-25.6h213.333c17.067 0 25.6 12.8 25.6 25.6V832c0 12.8 8.533 21.333 21.333 21.333S998.398 844.8 998.398 832V217.6c0-38.4-29.867-68.267-68.267-68.267z"/><path d="M904.533 302.933H746.666c-12.8 0-21.333 8.533-21.333 21.333s8.533 21.333 21.333 21.333h157.867c12.8 0 21.333-8.533 21.333-21.333s-8.533-21.333-21.333-21.333zm0 81.067H746.666c-12.8 0-21.333 8.533-21.333 21.333s8.533 21.333 21.333 21.333h157.867c12.8 0 21.333-8.533 21.333-21.333S917.333 384 904.533 384zm0 72.533H746.666c-12.8 0-21.333 8.533-21.333 21.333s8.533 21.333 21.333 21.333h157.867c12.8 0 21.333-8.533 21.333-21.333s-8.533-21.333-21.333-21.333zm0 81.067H746.666c-12.8 0-21.333 8.533-21.333 21.333s8.533 21.333 21.333 21.333h157.867c12.8 0 21.333-8.533 21.333-21.333s-8.533-21.333-21.333-21.333zm0 81.067H746.666c-12.8 0-21.333 8.533-21.333 21.333s8.533 21.333 21.333 21.333h157.867c12.8 0 21.333-8.533 21.333-21.333s-8.533-21.333-21.333-21.333zm-294.4-238.934l-42.667-42.667c-8.533-8.533-21.333-8.533-29.867 0s-8.533 21.333 0 29.867l12.8 17.067H426.666c-8.533 0-17.067 8.533-17.067 21.333s8.533 21.333 21.333 21.333h110.933l-4.267 4.267c-8.533 8.533-8.533 21.333 0 29.867 4.267 4.267 8.533 4.267 17.067 4.267 4.267 0 12.8 0 17.067-4.267l42.667-42.667c4.267-4.267 8.533-12.8 4.267-21.333-4.267-4.267-4.267-12.8-8.533-17.067zM588.8 576H486.4l4.267-4.267c8.533-8.533 8.533-21.333 0-29.867s-21.333-8.533-29.867 0l-38.4 38.4-8.533 8.533v8.533c0 4.266 0 12.8 4.267 17.067l38.4 38.4c4.267 4.267 8.533 4.267 17.067 4.267s12.8 0 17.067-4.267c8.533-8.533 8.533-21.333 0-29.867l-4.267-4.267h106.667c12.8 0 21.333-8.533 21.333-21.333s-17.067-21.333-25.6-21.333z"/></svg>