<?xml version="1.0" encoding="iso-8859-1"?>
<!-- Uploaded to: SVG Repo, www.svgrepo.com, Generator: SVG Repo Mixer Tools -->
<svg fill="#000000" height="800px" width="800px" version="1.1" id="Layer_1" xmlns="http://www.w3.org/2000/svg" xmlns:xlink="http://www.w3.org/1999/xlink" 
	 viewBox="0 0 491.52 491.52" xml:space="preserve">
<g>
	<g>
		<path d="M491.52,419.84V0H0v419.84h153.6v51.2h-40.96v20.48h266.24v-20.48h-40.96v-51.2H491.52z M20.48,20.48h450.56v317.44H20.48
			V20.48z M317.44,471.04H174.08v-51.2h143.36V471.04z M20.48,399.36V358.4h450.56v40.96H20.48z"/>
	</g>
</g>
<g>
	<g>
		<path d="M378.22,110.935l-0.8-6.7l-6.48-1.91c-85.26-25.11-117.45-57.86-117.73-58.155l-7.42-7.785l-7.44,7.75
			c-0.32,0.33-32.51,33.08-117.77,58.19l-6.48,1.91l-0.8,6.7c-0.17,1.435-15.55,144.47,128.45,205.69l4.01,1.7l4.01-1.7
			C393.77,255.405,378.39,112.37,378.22,110.935z M245.76,296.03C135.48,246.815,132,146.755,133.16,119.925
			c64.29-19.84,98.69-43.595,112.6-54.995c13.9,11.395,48.29,35.14,112.53,54.97C359.16,146.48,354.9,247.27,245.76,296.03z"/>
	</g>
</g>
<g>
	<g>
		<path d="M319.58,139.18c-25.82-9.65-48.84-20.7-68.42-32.84l-5.4-3.345l-5.4,3.345c-19.55,12.125-42.57,23.17-68.4,32.825
			l-7.77,2.905l1.23,8.21c4.92,32.65,21.96,78.015,75.22,108.725l5.12,2.95l5.11-2.95c53.3-30.72,70.34-76.075,75.26-108.71
			l1.23-8.21L319.58,139.18z M245.76,238.185c-38.14-23.97-53.09-56.785-58.63-82.905c21.61-8.495,41.27-17.97,58.63-28.26
			c17.38,10.3,37.05,19.785,58.66,28.275C298.88,181.405,283.93,214.205,245.76,238.185z"/>
	</g>
</g>
</svg>